<svg width="1200" height="800" viewBox="0 0 1200 800" fill="none" xmlns="http://www.w3.org/2000/svg">
  <rect width="1200" height="800" fill="#0F1115"/>
  <rect x="32" y="32" width="1136" height="736" rx="16" fill="#181C24" stroke="#C9FF3F" stroke-width="4"/>
  <g opacity="0.25">
    <path d="M80 700H1120" stroke="#2A2F3A" stroke-width="2"/>
    <path d="M80 560H1120" stroke="#2A2F3A" stroke-width="2"/>
    <path d="M80 420H1120" stroke="#2A2F3A" stroke-width="2"/>
    <path d="M80 280H1120" stroke="#2A2F3A" stroke-width="2"/>
    <path d="M80 140H1120" stroke="#2A2F3A" stroke-width="2"/>
  </g>
  <path d="M90 620C180 540 260 560 340 470C420 380 520 420 610 330C700 240 780 260 860 190C940 120 1020 150 1110 90" stroke="#23D9E3" stroke-width="10" stroke-linecap="round"/>
  <circle cx="340" cy="470" r="10" fill="#FFD84F"/>
  <circle cx="610" cy="330" r="10" fill="#FFD84F"/>
  <circle cx="860" cy="190" r="10" fill="#FFD84F"/>
  <rect x="96" y="88" width="286" height="64" rx="10" fill="#C9FF3F"/>
  <text x="116" y="129" fill="#111111" font-family="monospace" font-size="30" font-weight="700">MARKETPULSE</text>
  <rect x="96" y="170" width="420" height="48" rx="8" fill="#23D9E3"/>
  <text x="114" y="201" fill="#0B0F14" font-family="monospace" font-size="22" font-weight="700">EVENT-DRIVEN FINANCIAL INTELLIGENCE</text>
</svg>
